<svg width="512" height="512" viewBox="0 0 512 512" fill="none" xmlns="http://www.w3.org/2000/svg">
  <defs>
    <linearGradient id="bgBase" x1="72" y1="40" x2="440" y2="472" gradientUnits="userSpaceOnUse">
      <stop offset="0" stop-color="#09081A"/>
      <stop offset="0.38" stop-color="#151433"/>
      <stop offset="0.72" stop-color="#312E81"/>
      <stop offset="1" stop-color="#7C3AED"/>
    </linearGradient>
    <radialGradient id="glowCyan" cx="0" cy="0" r="1" gradientUnits="userSpaceOnUse" gradientTransform="translate(380 96) rotate(135) scale(220)">
      <stop offset="0" stop-color="#22D3EE" stop-opacity="0.42"/>
      <stop offset="1" stop-color="#22D3EE" stop-opacity="0"/>
    </radialGradient>
    <radialGradient id="glowViolet" cx="0" cy="0" r="1" gradientUnits="userSpaceOnUse" gradientTransform="translate(120 404) rotate(-45) scale(200)">
      <stop offset="0" stop-color="#A78BFA" stop-opacity="0.34"/>
      <stop offset="1" stop-color="#A78BFA" stop-opacity="0"/>
    </radialGradient>
    <linearGradient id="shine" x1="256" y1="56" x2="256" y2="220" gradientUnits="userSpaceOnUse">
      <stop offset="0" stop-color="#FFFFFF" stop-opacity="0.28"/>
      <stop offset="1" stop-color="#FFFFFF" stop-opacity="0"/>
    </linearGradient>
    <linearGradient id="cloud" x1="208" y1="96" x2="304" y2="156" gradientUnits="userSpaceOnUse">
      <stop offset="0" stop-color="#FFFFFF"/>
      <stop offset="1" stop-color="#CFFAFE"/>
    </linearGradient>
    <linearGradient id="rain" x1="256" y1="148" x2="256" y2="220" gradientUnits="userSpaceOnUse">
      <stop offset="0" stop-color="#A5F3FC"/>
      <stop offset="1" stop-color="#22D3EE"/>
    </linearGradient>
    <linearGradient id="panel" x1="256" y1="176" x2="256" y2="372" gradientUnits="userSpaceOnUse">
      <stop offset="0" stop-color="#FFFFFF" stop-opacity="0.26"/>
      <stop offset="1" stop-color="#FFFFFF" stop-opacity="0.08"/>
    </linearGradient>
    <linearGradient id="playGlow" x1="256" y1="196" x2="256" y2="292" gradientUnits="userSpaceOnUse">
      <stop offset="0" stop-color="#22D3EE" stop-opacity="0.5"/>
      <stop offset="1" stop-color="#7C3AED" stop-opacity="0.18"/>
    </linearGradient>
    <linearGradient id="arrow" x1="256" y1="286" x2="256" y2="356" gradientUnits="userSpaceOnUse">
      <stop offset="0" stop-color="#FFFFFF"/>
      <stop offset="1" stop-color="#67E8F9"/>
    </linearGradient>
    <clipPath id="iconClip">
      <rect width="512" height="512" rx="112"/>
    </clipPath>
  </defs>

  <g clip-path="url(#iconClip)">
    <rect width="512" height="512" fill="url(#bgBase)"/>
    <rect width="512" height="512" fill="url(#glowCyan)"/>
    <rect width="512" height="512" fill="url(#glowViolet)"/>
    <rect width="512" height="512" fill="url(#shine)"/>
    <rect x="1.5" y="1.5" width="509" height="509" rx="110.5" stroke="#FFFFFF" stroke-opacity="0.14" stroke-width="3"/>

    <g fill="url(#cloud)">
      <circle cx="214" cy="128" r="24"/>
      <circle cx="248" cy="114" r="30"/>
      <circle cx="286" cy="120" r="26"/>
      <circle cx="318" cy="134" r="20"/>
      <rect x="198" y="126" width="132" height="34" rx="17"/>
    </g>

    <g stroke="url(#rain)" stroke-linecap="round">
      <line x1="228" y1="168" x2="228" y2="214" stroke-width="8"/>
      <line x1="256" y1="160" x2="256" y2="206" stroke-width="8"/>
      <line x1="284" y1="168" x2="284" y2="214" stroke-width="8"/>
    </g>
    <circle cx="228" cy="222" r="5.5" fill="#67E8F9"/>
    <circle cx="256" cy="214" r="5.5" fill="#67E8F9"/>
    <circle cx="284" cy="222" r="5.5" fill="#67E8F9"/>

    <rect x="124" y="192" width="264" height="204" rx="58" fill="url(#panel)" stroke="#FFFFFF" stroke-opacity="0.22" stroke-width="3"/>
    <rect x="142" y="210" width="228" height="168" rx="46" fill="url(#playGlow)"/>

    <path d="M234 246L234 286L278 266L234 246Z" fill="#FFFFFF"/>

    <path d="M256 300V346" stroke="url(#arrow)" stroke-width="20" stroke-linecap="round"/>
    <path d="M226 320L256 354L286 320" stroke="url(#arrow)" stroke-width="20" stroke-linecap="round" stroke-linejoin="round"/>

    <circle cx="372" cy="372" r="10" fill="#22D3EE" fill-opacity="0.55"/>
    <circle cx="140" cy="340" r="7" fill="#A78BFA" fill-opacity="0.45"/>
    <circle cx="392" cy="248" r="6" fill="#FFFFFF" fill-opacity="0.22"/>
  </g>
</svg>